<svg xmlns="http://www.w3.org/2000/svg" viewBox="0 0 1600 900"><path fill="#f70" d="M0 0h1600v900H0z"/><path fill="#ba274b" d="M957 450 539 900h857z"/><path fill="#a70a16" d="m957 450-84.1 450H1396z"/><path fill="#c90b31" d="m-60 900 458-238 418 238z"/><path fill="#9f1b3f" d="m337 900 61-238 418 238z"/><path fill="#a04692" d="m1203 546 349 354H876z"/><path fill="#9e1a4d" d="m1203 546 349 354h-390z"/><path fill="#b4297e" d="m641 695 245 205H367z"/><path fill="#7d347b" d="m587 900 54-205 245 205z"/><path fill="#a62a95" d="m1710 900-309-268-305 268z"/><path fill="#94086f" d="m1710 900-309-268-36 268z"/><path fill="#952ead" d="M1210 900 971 687 725 900z"/><path fill="#73399e" d="M943 900h267L971 687z"/></svg>