<svg xmlns="http://www.w3.org/2000/svg" viewBox="0 0 500 500"><g id="freepik--Spaceship--inject-270"><path d="M289.05 93.09a3.76 3.76 0 0 1 3.87 2 4.16 4.16 0 0 1-.08 3.14 3.58 3.58 0 0 1-2.69 1.81 4.1 4.1 0 0 1-2.43-.74 3.33 3.33 0 0 1-1.39-2.32 4.2 4.2 0 0 1 .34-1.79 4.8 4.8 0 0 1 2.38-2.1" style="fill:#c7c7c7"/><path d="M289.85 93.79s2.8-5.88 3.48-6.85 7.41-6.81 7.41-6.81l9.09 3.9s-11.92 4.46-13.27 5.73-4.74 4.88-4.74 4.88Zm133.29 33.94a3.76 3.76 0 0 0-4.33-.1 4.14 4.14 0 0 0-1.41 2.81 3.56 3.56 0 0 0 1.52 2.86 4 4 0 0 0 2.49.49 3.3 3.3 0 0 0 2.32-1.39 4.3 4.3 0 0 0 .54-1.74 4.73 4.73 0 0 0-1.13-2.93" style="fill:#c7c7c7"/><path d="M422.1 128s.31-6.5.16-7.67-3.33-9.51-3.33-9.51l-9.85-.84s8.41 9.55 9 11.31 1.89 6.53 1.89 6.53Zm-65.55-4.81a3.76 3.76 0 0 0-4.25-.84 4.14 4.14 0 0 0-1.86 2.53 3.57 3.57 0 0 0 1 3.08 4.1 4.1 0 0 0 2.38.91 3.33 3.33 0 0 0 2.52-1 4.2 4.2 0 0 0 .82-1.61 4.7 4.7 0 0 0-.61-3.07" style="fill:#c7c7c7"/><path d="M355.49 123.25s2.23-5.32 2.67-6.42c.6-1.53 4.95-9.21 4.95-9.21l-9.57-2.49s.29 9.32.26 11.18c0 2.08-.38 6.4-.38 6.4Z" style="fill:#c7c7c7"/><path d="M271.76 72.24a3.84 3.84 0 0 1 1.24-1.92l.61-.48 8.26-6.47 161.77 42.57 4.05 9.78.26.62a4 4 0 0 1 .15 2.3c-2.42 9.19-43.86 6.24-92.56-6.57s-86.2-30.63-83.78-39.83" style="fill:#c7c7c7"/><path d="M280.71 65.17c2.24-8.49 40.56-5.77 85.6 6.08s79.74 28.35 77.51 36.84-40.56 5.77-85.6-6.08-79.74-28.34-77.51-36.84" style="fill:#dbdbdb"/><path d="M359.21 100a2.78 2.78 0 1 1 1.54-1.82 2.86 2.86 0 0 1-1.54 1.82m38.14 8.11c-2.51-1.23-4.48-2.37-6.33-3.5a33 33 0 0 1-4.56-3.22c2.51 1.23 4.48 2.37 6.32 3.5a34 34 0 0 1 4.57 3.22m28.73 2.34c-3.75-1.23-7.17-2.47-10.51-3.72s-6.55-2.5-9.45-3.76c3.75 1.23 7.17 2.47 10.52 3.72s6.54 2.5 9.44 3.76m11.64-4.05c-4-.9-7.94-1.91-11.89-2.94s-7.83-2.11-11.83-3.29c4 .9 7.93 1.91 11.88 2.94s7.93 2.12 11.84 3.29m-8.58-9.34c-3.15-.33-6.58-.83-10.08-1.38s-7.11-1.16-11-1.93c3.15.33 6.58.83 10.07 1.37s7.14 1.17 11.01 1.94m-26.5-12.14a34.4 34.4 0 0 1-5.57.56c-2.15.08-4.43.1-7.22-.06a34 34 0 0 1 5.56-.56c2.16-.07 4.44-.1 7.23.06m-37.32-11.68a2.82 2.82 0 0 1 .44 2.35 2.78 2.78 0 0 1-1.54 1.82 2.8 2.8 0 0 1-.44-2.34 2.85 2.85 0 0 1 1.54-1.83m-38.14-8.09c2.51 1.23 4.48 2.38 6.33 3.5a35 35 0 0 1 4.57 3.23c-2.52-1.23-4.49-2.38-6.33-3.5a35 35 0 0 1-4.57-3.23m-28.73-2.33c3.75 1.23 7.17 2.47 10.51 3.72s6.55 2.49 9.45 3.76c-3.75-1.23-7.17-2.48-10.52-3.72s-6.54-2.5-9.44-3.76m-11.64 4.04c4 .9 7.94 1.91 11.89 2.94s7.88 2.12 11.79 3.29c-4-.9-7.93-1.91-11.88-2.94s-7.89-2.15-11.8-3.29m8.58 9.34c3.15.34 6.58.84 10.08 1.38s7.11 1.16 11 1.94c-3.15-.33-6.58-.83-10.07-1.38s-7.14-1.14-11.01-1.94m26.5 12.14a35.6 35.6 0 0 1 5.57-.56c2.15-.07 4.43-.1 7.22.07a34 34 0 0 1-5.56.56c-2.12.07-4.44.1-7.23-.07" style="fill:#c7c7c7"/><path d="M293 62.93c1.46-1 4.18-.35 5 .66a4.82 4.82 0 0 1 1.11 3.5 4.15 4.15 0 0 1-2.27 3 4.75 4.75 0 0 1-3 .12 3.84 3.84 0 0 1-2.42-2 4.9 4.9 0 0 1-.31-2.1 5.5 5.5 0 0 1 1.89-3.18m28.76-3.12c1.41-1 4-.34 4.84.64a4.7 4.7 0 0 1 1.07 3.38 4 4 0 0 1-2.19 2.92 4.6 4.6 0 0 1-2.87.12 3.76 3.76 0 0 1-2.33-2 4.7 4.7 0 0 1-.3-2 5.32 5.32 0 0 1 1.78-3.06m82.69 21.8c1.41-1 4.05-.34 4.85.64a4.7 4.7 0 0 1 1.07 3.38 4 4 0 0 1-2.19 2.92 4.6 4.6 0 0 1-2.87.12 3.78 3.78 0 0 1-2.34-2 4.9 4.9 0 0 1-.29-2 5.35 5.35 0 0 1 1.77-3.06M428 99.27c1.46-1 4.19-.35 5 .66a4.93 4.93 0 0 1 1.11 3.5 4.14 4.14 0 0 1-2.28 3 4.67 4.67 0 0 1-3 .12 3.86 3.86 0 0 1-2.42-2 4.9 4.9 0 0 1-.31-2.1 5.53 5.53 0 0 1 1.9-3.18M322.93 81.25c1.46-1 4.18-.36 5 .66a4.82 4.82 0 0 1 1.11 3.5 4.16 4.16 0 0 1-2.27 3 4.82 4.82 0 0 1-3 .12 3.86 3.86 0 0 1-2.42-2 4.9 4.9 0 0 1-.31-2.1 5.5 5.5 0 0 1 1.89-3.18M392 99.77c1.46-1 4.18-.36 5 .66a4.82 4.82 0 0 1 1.11 3.5 4.14 4.14 0 0 1-2.27 3 4.82 4.82 0 0 1-3 .12 3.86 3.86 0 0 1-2.42-2 4.9 4.9 0 0 1-.31-2.1 5.5 5.5 0 0 1 1.89-3.18m-34.27-7c1.46-1 4.18-.35 5 .67a4.8 4.8 0 0 1 1.11 3.49 4.1 4.1 0 0 1-2.27 3 4.75 4.75 0 0 1-3 .13 3.9 3.9 0 0 1-2.42-2 4.9 4.9 0 0 1-.31-2.1 5.53 5.53 0 0 1 1.89-3.19" style="fill:#dd822e"/><path d="M405.35 89.2c-.06.19-.14.39-.21.59-2.14 3.21-20.91 1.27-42.94-4.53S323.11 72 322.6 68.13c.07-.3.14-.59.22-.88 3-11.94 10.42-23 17.81-26.92a52.93 52.93 0 0 1 39-4.36c10.45 2.76 24.93 16.24 27.58 29.26 1.98 9.87.51 17.09-1.86 23.97" style="fill:#37474f"/><g style="opacity:.2"><path d="M385.51 55.35c-3.06 6.6 4.9 19.71 10.93 17.13 4.92-2.12 6-8.76 5.34-12.71s-3.7-8.64-7.9-9c-3.55-.22-7.24 2.15-8.37 4.58m-6.41-8.97c-.13 2.28 3.88 4 5.93 2.79s1.49-4.74-.1-5.57-5.72.73-5.83 2.78" style="fill:#fff"/></g><path d="M404.28 66.27a.78.78 0 0 1 0 1.55.78.78 0 0 1 0-1.55m-63.12-3.09a.78.78 0 0 1 0 1.55.78.78 0 0 1 0-1.55m-6.48-12.39a1.49 1.49 0 0 1 0 3 1.49 1.49 0 0 1 0-3m45.91 31 4.79.88 1.07 5.06 1.08-5.06 4.79-.88-4.77-1.17-1.1-4.77-1.09 4.77zm-39.43-24.13 2.68.49.6 2.83.6-2.83 2.67-.49-2.66-.65-.61-2.67-.61 2.67z" style="fill:#455a64"/></g><path id="freepik--Stars--inject-270" d="m226.11 435.22 5.63 1.04 1.25 5.94 1.26-5.94 5.63-1.04-5.6-1.37-1.29-5.6-1.28 5.6zm-93.41-90.85 5.63 1.04 1.26 5.93 1.25-5.93 5.63-1.05-5.6-1.36-1.28-5.61-1.29 5.61zm312.78-175.98 5.63 1.04 1.26 5.93 1.25-5.93 5.63-1.05-5.6-1.37-1.28-5.6-1.29 5.6zm-400.7 11.24 3.15.59.7 3.31.71-3.31 3.14-.59-3.13-.76-.72-3.14-.71 3.14zM168.24 49.96l3.15.58.7 3.32.7-3.32 3.15-.58-3.13-.77-.72-3.13-.72 3.13zm186.29 92.99 3.15.58.7 3.32.7-3.32 3.15-.58-3.13-.76-.72-3.14-.71 3.14zM104.5 320.88l3.15.58.7 3.32.71-3.32 3.14-.58-3.13-.76-.72-3.14-.71 3.14zm319.2 83.91a.91.91 0 0 1 0 1.82.91.91 0 0 1 0-1.82m-312.11-48.68a.91.91 0 0 1 0 1.82.91.91 0 0 1 0-1.82m256.05-169.82a.92.92 0 0 1 0 1.83.92.92 0 0 1 0-1.83m-191.7-71.82a.92.92 0 0 1 0 1.83.92.92 0 0 1 0-1.83m290.28 281.44a.91.91 0 0 1 0 1.82.91.91 0 0 1 0-1.82M428.05 295a.91.91 0 0 1 0 1.82.91.91 0 0 1 0-1.82M273.14 452.65a.65.65 0 0 1 0 1.29.65.65 0 0 1 0-1.29m51.05-75.31a.65.65 0 0 1 0 1.29.65.65 0 0 1 0-1.29m-130.74 35.29a.65.65 0 0 1 0 1.29.65.65 0 0 1 0-1.29m110.01-291.21a1.75 1.75 0 0 1 0 3.5 1.75 1.75 0 0 1 0-3.5M134.88 71.17l5.62 1.04 1.26 5.94 1.26-5.94 5.63-1.04-5.6-1.37-1.29-5.61-1.28 5.61zM371.57 234.5l5.63 1.04 1.25 5.93 1.26-5.93 5.63-1.05-5.6-1.37-1.29-5.6-1.28 5.6zm-257.15 69.17a.65.65 0 0 1 0 1.3.65.65 0 0 1 0-1.3m153.31-197.09a.65.65 0 0 1 0 1.29.65.65 0 0 1 0-1.29m-194.46 231a1.75 1.75 0 0 1 0 3.5 1.75 1.75 0 0 1 0-3.5m361.3-155.87a1.75 1.75 0 0 1 0 3.5 1.75 1.75 0 0 1 0-3.5M34.59 193a1.75 1.75 0 0 1 0 3.5 1.75 1.75 0 0 1 0-3.5m241.78-68.85 3.15.58.7 3.32.7-3.32 3.15-.58-3.13-.77-.72-3.13-.72 3.13zM390.1 373.66l3.15.58.7 3.32.71-3.32 3.14-.58-3.13-.77-.72-3.13-.71 3.13zm42.31 38.97 3.14.59.7 3.31.71-3.31 3.15-.59-3.14-.76-.72-3.14-.71 3.14zM66.14 186.29a.92.92 0 0 1 0 1.83.92.92 0 0 1 0-1.83M129.35 66.1a.65.65 0 0 1 0 1.29.65.65 0 0 1 0-1.29" style="fill:#dd822e"/><g id="freepik--Planet--inject-270"><path d="M84.65 396.27c5-15.07 28-24.29 39.2-21.36A42.74 42.74 0 0 1 150 394.05c4.7 7.54 5.56 23.9-.47 33.37s-13 12.71-20.5 16.29-21.69 2.34-27.83-1.9-10.45-8.72-13.2-13.37-7.15-20.61-3.35-32.17" style="fill:#455a64"/><path d="M93.23 392.29c3.81-11.6 21.54-18.69 30.15-16.44a32.92 32.92 0 0 1 20.08 14.73c3.62 5.8 4.28 18.38-.36 25.66s-10 9.78-15.77 12.54-16.68 1.8-21.4-1.47A33 33 0 0 1 95.83 417c-2.09-3.55-5.52-15.82-2.6-24.71" style="fill:#fff;opacity:.1"/><path d="M112.87 440.94c2.87 2.06 9.86-.56 9.16-3.67-.56-2.54-3.63-3.67-5.58-3.7s-4.46 1-5 3a4.45 4.45 0 0 0 1.42 4.37m-7.21-3.87c1 1 3.38-.16 3.65-1.58s-1.56-2.58-2.58-2.19-1.96 2.9-1.07 3.77m18.71-55.61c-.22 1.87 3 3.49 4.75 2.6s1-3.1-.23-3.87-4.33-.42-4.52 1.27" style="fill:#37474f"/><path d="M84.25 416.89c-5 4.6-15.67 17.17-13.68 21.25s30.33-5 51.58-17.71 45.2-40 43.65-43.07-25.23 5.94-25.23 5.94l-2-1.51s29.93-13.66 34-7-27.22 38.07-46 49.77c-22.9 14.31-55.52 26.62-62 18-3.57-4.82 11.48-21.56 19.2-28.42Z" style="fill:#37474f"/></g><g id="freepik--Alien--inject-270"><path d="M322.58 359.62c1.42-9.18 18.32-33.29 34.13-36.82s46.78 2.12 46.78 2.12 4.91-12.53 9.48-10.21c2.79 1.42 4.37 43.83 2 45.55s-34.1 7.78-34.1 7.78-14.47 17.51-31.32 19.14-29.17-13.36-26.97-27.56" style="fill:#dd822e"/><path d="M322.58 359.62c1.42-9.18 18.32-33.29 34.13-36.82s46.78 2.12 46.78 2.12 4.91-12.53 9.48-10.21c2.79 1.42 4.37 43.83 2 45.55s-34.1 7.78-34.1 7.78-14.47 17.51-31.32 19.14-29.17-13.36-26.97-27.56" style="opacity:.1"/><path d="M240.43 355.55s10.46 54.74 18.61 67.91 34.45 23.78 60.29 21.64 60.15-53.8 52.07-78c-6.44-19.27-54.13-54.86-54.13-54.86Z" style="fill:#dd822e"/><path d="M347.41 428c-8.94 9.59-19 16.4-28.08 17.15-25.84 2.13-52.15-8.48-60.29-21.65s-18.61-67.9-18.61-67.9l6.13-3.47c3.6 8.79 17.83 49.69 26.22 60.89 6.38 8.52 32.37 25.49 50.9 25.37 5.83-.09 17.58-6.39 23.73-10.39" style="opacity:.1"/><path d="M266.66 425.32c5.15 4.32 18.76.37 17.91-5.62-.71-4.9-6.36-7.48-10.06-7.82s-8.59 1.22-9.88 4.89c-1.09 3.1.14 6.97 2.03 8.55m23.74 2.33c2 2.28 7.37.21 8.19-2.82s-2.95-5.87-5.23-5.19-4.74 5.96-2.96 8.01m-15.55 3.14c-1 1.8 1.55 4.8 3.7 4.64s3.11-3.24 2.15-4.56-4.93-1.7-5.85-.08" style="opacity:.1"/><path d="M220.82 59.64s-16 23.93-12.82 43.88a313 313 0 0 0 7.21 32s-2.56 4.68-6.44 6.93-12.42.9-12.42.9-6.87-21.76-5.07-41.88c1.89-21.09 25.07-45.76 25.07-45.76s-.09-7.9 5.78-11c5.47-2.92 11 .9 8.38 7.44a11.54 11.54 0 0 1-9.69 7.49" style="fill:#dd822e"/><path d="M220.82 59.64s-16 23.93-12.82 43.88a313 313 0 0 0 7.21 32s-2.56 4.68-6.44 6.93-12.42.9-12.42.9-6.87-21.76-5.07-41.88c1.89-21.09 25.07-45.76 25.07-45.76s-.09-7.9 5.78-11c5.47-2.92 11 .9 8.38 7.44a11.54 11.54 0 0 1-9.69 7.49" style="opacity:.1"/><path d="M356.18 222.84c.29 5.5-3.36 11.57-3.36 11.57 5.05 30.54-5.39 67-33 93s-84.05 41.9-112.49 37.38-77.71-39.79-92.21-91.91c-17.26-62.09 19-114.76 49.87-133.48s84.57-25.34 115.09-7.47c7.56 4.42 13.58 9.1 21.36 17.06a22 22 0 0 1 7.75 0c7.25 2 28 22.76 36.54 40.39S356 219 356.18 222.84" style="fill:#dd822e"/><path d="M356.19 222.84c.28 5.49-3.37 11.57-3.37 11.57 5.05 30.54-5.39 67-33 93-2.11 2-4.39 3.92-6.8 5.78-29.32 22.61-79.44 35.81-105.7 31.61-28.44-4.51-77.7-39.79-92.19-91.92a118.8 118.8 0 0 1-3.84-44.48c4.39-41.85 30.55-75 53.69-89 30.88-18.73 84.58-25.34 115.1-7.48 7.56 4.42 13.58 9.1 21.37 17.06a21.7 21.7 0 0 1 7.74 0c7.25 2 28 22.78 36.54 40.41S356 219 356.19 222.84" style="fill:#dd822e"/><path d="M143 279.12c2.44-9.27-10.93-24.45-18.15-19.7-5.9 3.89-5.79 12.76-4 17.73s6.79 10.36 12.32 9.79c4.72-.47 8.96-4.41 9.83-7.82m2-26.12c1.73-3.94-4.22-9.65-8.63-8.87s-5.79 7.38-3.52 9.92S143.4 256.53 145 253m-22.69-10.77c-1.89-2.25-7.19-.32-8 2.62s2.79 5.78 5 5.16 4.69-5.75 3-7.78" style="opacity:.1"/><g style="opacity:.2"><path d="M224.27 134.59c-5 12.06 13.42 29 26.74 26.3s17.06-22.75 10-30.29-32.24-6.88-36.74 3.99" style="fill:#fff"/></g><path d="M313 333.22C283.7 355.8 233.58 369 207.32 364.8c-28.44-4.51-77.7-39.79-92.19-91.92a118.8 118.8 0 0 1-3.84-44.48l.41-1.51s.51 39.64 16.6 62.85c16.19 23.37 46 50.34 63.49 56.54s64.4 14.01 121.21-13.06" style="opacity:.1"/><path d="M155.45 286.15a19 19 0 0 0-.12 5.34 39 39 0 0 0 .88 5.28 68.5 68.5 0 0 0 3.26 10.23 78 78 0 0 0 10.42 18.55c4.34 5.58 9.54 10.61 16 13.48a53 53 0 0 0 10 3.39 62.6 62.6 0 0 0 10.48 1.42 82.6 82.6 0 0 0 21.15-1.6 91 91 0 0 0 10.3-2.69 47 47 0 0 0 9.51-4.55 54.5 54.5 0 0 0 15.58-14.29 44.8 44.8 0 0 0 5.24-9.27 46.4 46.4 0 0 0 2.85-10.36 43.3 43.3 0 0 1-7.3 20.14 55.2 55.2 0 0 1-15.56 15 43.6 43.6 0 0 1-9.77 4.9 93 93 0 0 1-10.53 2.88 85 85 0 0 1-21.63 1.82 64.6 64.6 0 0 1-10.81-1.57 54 54 0 0 1-10.32-3.6 37.6 37.6 0 0 1-9.14-6.07 52 52 0 0 1-7.27-8.13 78.5 78.5 0 0 1-10.1-19.12 69 69 0 0 1-2.87-10.43 26.5 26.5 0 0 1-.25-10.75M301.44 149a53 53 0 0 0-6.18 1.73 34.3 34.3 0 0 0-5.78 2.54 18.2 18.2 0 0 0-4.8 3.79 33 33 0 0 0-3.65 5.06 65.5 65.5 0 0 0-5.35 11.47 73 73 0 0 0-3.24 12.41 43.2 43.2 0 0 1 1.76-12.85 49.3 49.3 0 0 1 5.11-12 33.4 33.4 0 0 1 4-5.31 18.2 18.2 0 0 1 5.47-3.88 28.7 28.7 0 0 1 6.22-2.1 33 33 0 0 1 6.44-.86m51.38 85.41a21.2 21.2 0 0 1-4.92 6.83 20.1 20.1 0 0 1-7.33 4.45 38 38 0 0 1-4.12 1.09c-1.39.24-2.77.48-4.17.59a41 41 0 0 1-8.37 0c2.74-.52 5.46-1 8.14-1.53a62 62 0 0 0 7.86-2 20 20 0 0 0 3.63-1.58 24.6 24.6 0 0 0 3.36-2.17 39 39 0 0 0 5.92-5.68" style="opacity:.1"/><path d="M68.65 273s1.85-31.41 19.78-40.72 40.13-6.28 40.13-6.28a33.6 33.6 0 0 0 2.84-10.29c.48-4.49-6.51-12-6.51-12s-34.34 4.73-49 18.64-13.24 50.47-13.24 50.47-5.48 5.68-3.37 12c2 5.88 8.62 6.92 11.2.36A11.57 11.57 0 0 0 68.65 273" style="fill:#dd822e"/><g style="opacity:.1"><path d="M111.59 226a7.5 7.5 0 0 1 2.42-1.3 10.7 10.7 0 0 1 2.63-.51 9.8 9.8 0 0 1 2.7.19 6.4 6.4 0 0 1 2.53 1.14 25 25 0 0 1-2.61.43c-.84.11-1.66.18-2.49.24s-1.66.08-2.52.06a14.7 14.7 0 0 1-2.66-.25m4.5-20.68a7.7 7.7 0 0 1 2.18-1.14 11.4 11.4 0 0 1 2.29-.53 11.5 11.5 0 0 1 2.35-.06 7.5 7.5 0 0 1 2.39.58 8.7 8.7 0 0 1-2.23 1 14 14 0 0 1-4.57.58 8.8 8.8 0 0 1-2.41-.43"/><path d="M115.83 225.26a17.5 17.5 0 0 1 1.39 2.77c.38.93.7 1.86 1 2.72a4.6 4.6 0 0 0 .55 1.06 11 11 0 0 0 .86 1c.63.7 1.36 1.39 2.07 2.2a7.06 7.06 0 0 1-3-1 6 6 0 0 1-1.33-1.05 4.7 4.7 0 0 1-1-1.55 11.7 11.7 0 0 1-.69-3.08 10.4 10.4 0 0 1 .15-3.07m4.42-20.91a5.5 5.5 0 0 1 .8-2.5 6.6 6.6 0 0 1 4.17-3.11 3.85 3.85 0 0 1 2.67.18 17 17 0 0 0-2 1.27c-.63.42-1.27.86-1.83 1.28-1.22.86-2.32 1.89-3.81 2.88"/></g><path d="M197 236.89c20.24-8.62 47.55 1 58.8 19.4 8.38 13.69 9.45 29.33 5.39 44.58-3.16 11.91-18.85 28.56-34.2 31.18-29.13 5-50-2-60.41-35.25-3.77-11.9-8.97-43.14 30.42-59.91m87.82-62.31c4.85-15.9 23-23.18 38.34-16.59 11.44 4.91 20.48 14.78 26.89 27 5 9.52 5.85 28 .88 37.9-8.45 16.89-28.43 20.79-47.75 6.85-8.31-6.03-27.78-24.27-18.36-55.16" style="fill:#263238"/><path d="M221.75 240c11.83-1.32 28 17.84 20.9 25.83-5.84 6.55-16.71 4.81-22.48 1.69s-11.48-10.22-9.79-16.89c1.43-5.63 7.04-10.17 11.37-10.63m-24.94 6.35c3.6-1 7.73 4.83 6.51 8.51s-7.06 4-8.95 1.77-.8-9.39 2.44-10.28m90.6-57.69c-3.87 11.25 11.29 31.24 20.65 26 7.66-4.27 8.33-15.25 6.54-21.57s-7.46-13.43-14.35-13.23c-5.82.14-11.42 4.67-12.84 8.8m11.65-22.95c-1.74 3.29 3 8.59 6.89 8.2s5.47-6 3.68-8.34-8.99-2.83-10.57.14" style="fill:#37474f"/><path d="M270.47 248.39c2.82-2.43 9.22-3.62 12.36-5.89 3.35-2.42 3.17-6.26 7.14-8.87 3.1-2 9.58-.43 11.89 5s1.31 15-8 21.92-17.8 5.56-22 2.87c-3.77-2.42-6.35-10.75-1.39-15.03" style="fill:#263238"/><path d="M301.87 250.12a22.34 22.34 0 0 1-8 10.43c-7.71 5.75-14.7 5.82-19.31 4.18a27.14 27.14 0 0 1 7.3-13.18c6.69-6.63 13.84-5.34 20.01-1.43" style="fill:#ff99ba"/><path d="M242.23 363.14c3-.74 6-1.49 9-2.28s5.91-1.58 8.83-2.48 5.85-1.78 8.76-2.74 5.8-2 8.78-2.93a55.3 55.3 0 0 1-8.22 4.38c-1.41.66-2.87 1.18-4.32 1.75s-2.94 1-4.43 1.46a76 76 0 0 1-9.08 2.09 49.7 49.7 0 0 1-9.32.75" style="fill:#263238"/><path d="M262.58 358.65c1.9-.33 3.75-.53 5.61-.76l2.79-.32c.93-.09 1.86-.21 2.83-.25a16.6 16.6 0 0 1-5.51 1.56 19.6 19.6 0 0 1-2.86.13 13.2 13.2 0 0 1-2.86-.36" style="fill:#263238"/><path d="m325.38 177.86 7.54 1.39 1.68 7.95 1.69-7.95 7.53-1.39-7.5-1.84-1.72-7.5-1.72 7.5zm1.12 4.81a.78.78 0 0 1 0 1.55.78.78 0 0 1 0-1.55m13.05 20.27a.78.78 0 0 1 0 1.55.78.78 0 0 1 0-1.55m-155.22 75.59a1.49 1.49 0 0 1 0 3 1.49 1.49 0 0 1 0-3m49.1 35.9 4.79.88 1.07 5.05 1.07-5.05 4.8-.89-4.78-1.16-1.09-4.77-1.09 4.77zm96.17-92.61 2.67.5.6 2.82.6-2.82 2.68-.5-2.67-.65-.61-2.67-.61 2.67zm-126.73 47.9a1.49 1.49 0 0 1 0 3 1.49 1.49 0 0 1 0-3m-6.55 15.12 2.68.49.6 2.82.6-2.82 2.68-.5-2.67-.65-.61-2.66-.61 2.66z" style="fill:#37474f"/><path d="M287 297.41c-7.56 17.72 1.54 48.33 9.85 58.84 9.75 12.33 29.78 23.21 47.16 23a63.24 63.24 0 0 0 44.4-19.67c10.36-11.2 16.85-31 16.78-40.53s-6.77-29.87-13.4-38.49c-7.37-9.56-24-19.93-39.93-22.52-12.91-2.1-37.76 7.79-45 14.1-6.12 5.32-15.73 15.67-19.86 25.27" style="fill:#c6f0c5"/><path d="M331.42 373.25a3.93 3.93 0 0 0-1.79-1.45 2.67 2.67 0 0 0-2.17-.2 1.34 1.34 0 0 0-.56 1.9 3.28 3.28 0 0 0 1.83 1.33 1.3 1.3 0 0 0 .3.09 2.78 2.78 0 0 0 1.77.13 1.24 1.24 0 0 0 .62-1.8m1.26-3.25a2.2 2.2 0 0 0-1-.57.91.91 0 0 0-1.06.69 1.06 1.06 0 0 0 .39 1 1.8 1.8 0 0 0 .6.28 1.7 1.7 0 0 0 .34.14.89.89 0 0 0 1.15-.36c.26-.41-.1-.84-.42-1.18m4.18 4a2.21 2.21 0 0 0-2.24-1.1 1 1 0 0 0-.94 1.11 1.2 1.2 0 0 0 .76.95 2.2 2.2 0 0 0 .4.22 2.09 2.09 0 0 0 1.85-.17.75.75 0 0 0 .17-1.01m-44.97-35.16a1.3 1.3 0 0 0-.29.52 3.15 3.15 0 0 0-.07 2.51 12 12 0 0 0 2.11 4.79 1.44 1.44 0 0 0 2.19.17c.87-.93.2-2.4-.14-3.39s-1.94-6.62-3.8-4.6m8.19 3.96a1.41 1.41 0 0 0-1.83-.22c-.6.5-.36 1.3-.13 1.93a5 5 0 0 0 .23.51l.08.17c.3.6.78 1.4 1.56 1.21 1.48-.4.86-2.86.09-3.6m-.38 6.5a2 2 0 0 0-.67-.85.93.93 0 0 0-1.4.3 1.77 1.77 0 0 0 .53 1.85 1.06 1.06 0 0 0 .67.54.89.89 0 0 0 1-.73 1.9 1.9 0 0 0-.13-1.11m-3.7-8.42a1.4 1.4 0 0 0 .41.63.65.65 0 0 0 1-.12 1.23 1.23 0 0 0-.24-1.32.78.78 0 0 0-.44-.42.62.62 0 0 0-.76.44 1.4 1.4 0 0 0 .03.79M397.76 338a1 1 0 0 0-.68.45 7.2 7.2 0 0 0-1.24 1.88 6.1 6.1 0 0 0-1.11 2.63.92.92 0 0 0 1.11 1c.88-.14 1.44-1.22 1.87-1.87a5.54 5.54 0 0 0 1-2.65c.02-.62-.12-1.58-.95-1.44m-3.58 7.42a1.18 1.18 0 0 0-.87.71c-.1.2-.22.42-.31.65a1 1 0 0 0-.09 1.16c.31.44.85.31 1.25.09a2.1 2.1 0 0 0 .73-.77 1.75 1.75 0 0 0 .24-1 .89.89 0 0 0-.95-.84m-1.12-3.56c-.69-.33-1.24.48-1.55 1.34-.16.44-.76 1.17-.55 1.62a1 1 0 0 0 1.13.52 2 2 0 0 0 1.11-1c.42-.66.8-2.02-.14-2.48m1.12-3.86a1.5 1.5 0 0 0-.27.64.14.14 0 0 0 0 .06.6.6 0 0 0 .29.73 1 1 0 0 0 .86-.06 1.38 1.38 0 0 0 .51-1.42c-.27-.64-1.08-.37-1.39.05m-2 11.32a.87.87 0 0 0-.7.58.72.72 0 0 0-.05.71c.3.55 1.05.3 1.33-.11a.72.72 0 0 0-.58-1.18m4.75-17a.84.84 0 0 0-.42.34c-.37.34-.39 1.25-.45 1.66a1.22 1.22 0 0 0 .27 1.16.91.91 0 0 0 1.23-.06 2.72 2.72 0 0 0 .47-2.48.9.9 0 0 0-1.1-.62m-73.42 37.61a2.65 2.65 0 0 0-1.17-.38.83.83 0 0 0-.8.74.7.7 0 0 0-.07.33 1.31 1.31 0 0 0 .72.95c.66.42 1.92.42 2-.6a1.12 1.12 0 0 0-.68-1.04m29.42-108.13c-.71 0-1.81.68-1.25 1.51a1.06 1.06 0 0 0 .94.41h.65c.73.17 1.64.2 1.79-.62.19-.98-1.42-1.33-2.13-1.3m2.56-1.32a.75.75 0 0 0-.18 1.34 2.6 2.6 0 0 0 .67.22 4 4 0 0 0 .62.16.59.59 0 0 0 .72-.66c.2-.86-1.17-1.3-1.83-1.06m2.18 2.32h-.06a.34.34 0 0 0-.25.52s0 0 0 .06a.47.47 0 1 0 .28-.6Z" style="fill:#dbf7da"/><path d="M284.72 326.54c.44 1.08 1.6 1.15 2.19 1.82s2 4.37 4.25 5 6.18-.13 6.84-.31 1.78-1.11 2.84-1.12 1.63 2.07 2.75 2.2.64-1.4 1.36-1.43 2.9 1.75 3.82 1.88 2-.18 2.71.16 1.75 1.65 3.69 1.75 4.92-2.36 6-2.37a12.5 12.5 0 0 0 2.69.11c1-.19 3.68-2.06 4.26-2.29s1.21.26 2.19-.22 2.18-1.91 3.05-1.47.48 1.74.05 2.64-.23 2-.88 2.65-2.26 2.61-2.38 3.43.75 2.54.54 3.68.49 4.57-.54 6.12 2 4.63 3.2 4.81 4.67-1.67 6.41-1.62 3.1 2.06 5.17 2.31a70 70 0 0 1 10.14 3.07c1.29.56 5.52 2.25 5.86 3.18s-.11 3.73.78 4.53 6.56 2.92 7.7 3.53 6.19.92 7.09.89a2 2 0 0 0 1.36-.76c0-.14-2.66-.88-3.23-1.17s-1.26-1.33-1.49-1.51a13 13 0 0 1-2.23-.94 13.9 13.9 0 0 1-2.27-3.52c-.21-.74.83-5.55 1-6.39s-1.27-3.15-1.25-3.93 1.1-2.61 1.08-3.5-1.55-2.18-1.72-2.61a63 63 0 0 1-.08-7.92c.16-.63 1-1.84.91-2.49s-1.24-1.57-1.48-1.78 0-1.83-.33-2.18a23 23 0 0 0-2.88-1.63c-.64-.37-1.3-1-1.76-1s-2.83 1-3.22 1.05a26 26 0 0 0-2.81.27c-.43.14-1.3.82-1.64.83s-3.65-.59-4.44-.65-1.73.28-2 .15-3.05-2.67-3.65-2.87a20.7 20.7 0 0 0-4.61-.57c-1.07.09-7.43.91-8 .81a32 32 0 0 1-4.37-1.94c-.4-.29-.9-4.39-1.43-5s-7.08-5.29-7.44-5.68-1.08-4.41-1.11-5a7.4 7.4 0 0 1 1.71-2.85 38 38 0 0 0 4-2.62 33 33 0 0 0 2.94-4 5.2 5.2 0 0 0-.62-2.42c-.17-.22 1.75-4.95 2.35-5.8s4.17-5.45 4.52-6.65-1.17-3.93-1.51-4.37a10 10 0 0 1-1-1.27c-.12-.32-1-3-1.84-3s-3.49 2.85-3.64 3.2A10.5 10.5 0 0 1 323 282c-.31.22-2.17 1.13-2.64 1.52s-2.63 2.12-3.14 2.07a3.1 3.1 0 0 1-1.67-1.29 10 10 0 0 1-.51-2.07 11 11 0 0 1 .6-1.45c.1-.37-.68-1.53-.63-2.23s3.94-2.18 4.82-2.75 2.05-3.7 2.68-4.38 2.89-.52 3.28-.57 1.94-.76 2-1.18-1.68-1.82-2.24-1.84-4.82-.11-5.45 0-6 2-6.32 2.24a12 12 0 0 1-1.94 1.31c-.42.09-1.46-.16-2.05-.09a24 24 0 0 0-4.1.77c-3.11 2-12.63 11.6-16.82 19.66a43 43 0 0 0-5.33 21.16c.03 7.35.72 12.55 1.18 13.66m83.92-62.39a6.2 6.2 0 0 1 2.27-.9c.48 0 14 7.84 18.66 13.16s9.09 13 12.82 24.59 4 17.21 3.73 20.34-3.12 14.66-4.35 16.88c-.41.73-1.6-.64-1.82-1.09s0-2.41-.25-3.34-2.76-3.26-3.19-4.16 1-3.05.9-3.76-1.45-2.95-1.56-3.77.06-4 0-4.86-2.58-3.13-3.4-3-1.06 1.69-1.61 2.09a2.33 2.33 0 0 1-1.44.57c-.24-.08-1.15-.84-1.68-.67s-1.26 1.4-1.54 1.58-4.93 1.65-5.5 1.81-4.95 2.38-5.4 2.37a33 33 0 0 1-4.1-1.87c-.29-.15-5-6-5.54-7.47s3.1-9.42 3.35-10.25-.24-4.67-.1-5.46 1.51-1.58 1.77-2 .18-1.42.79-2.15 2.82-2.54 3.48-3.46a10.9 10.9 0 0 0 1.13-3.11c.15-.51 1.14-2 1.27-2.46s.18-1.63.68-2a8.76 8.76 0 0 1 4.23-.6c.92.25 2.43 1.79 3 1.8a3.6 3.6 0 0 0 2.1-.91 14.2 14.2 0 0 0 .52-3.89c-.07-.39-1-1.79-1.45-1.73s-3.33 1.49-4.14 1.47-4.32-.66-5.14-.49a30 30 0 0 0-4.78 2.3 35.7 35.7 0 0 0-2.88 5.59c-.16.68-.06 4.76-.73 5.64s-4.34 1.64-5.6 1.55-2.92-4.69-2.94-5.36 2.86-5.55 3.19-6.11 2.74-2.89 3.14-3.44 1.14-2.42 1.56-3 1.53-1.67 1.54-2-.28-1.07-.57-1.15-2.15 0-2.5-.64.77-3.76.92-4.31a6.3 6.3 0 0 1 1.16-2.33" style="fill:#8bd8aa"/><path d="M367.31 294.07a1.8 1.8 0 0 0-2.86.43 2.13 2.13 0 0 0-.47 1.16 1.15 1.15 0 0 0 1.38 1.33 2.3 2.3 0 0 0 .87-.52c.26-.21.54-.37.78-.6a1.37 1.37 0 0 0 .3-1.8m-2.37 3.83a.86.86 0 0 0-1 .68.4.4 0 0 0 0 .16.81.81 0 0 0 .14.69.9.9 0 0 0 1.52-.19 1 1 0 0 0-.66-1.34m-12.25 27.21a6.9 6.9 0 0 0-2.36-.47 1.25 1.25 0 0 0-1.12 1.29 2 2 0 0 0 .05.28.85.85 0 0 0 .25.66 3.5 3.5 0 0 0 1.74.94 3.25 3.25 0 0 0 2 0 1.45 1.45 0 0 0 .91-1.6c-.16-.72-.83-.94-1.47-1.1m5.69.8a1.16 1.16 0 0 0-1.11-.41 1.55 1.55 0 0 0-1.1.37.92.92 0 0 0 .29 1.42 1.35 1.35 0 0 0 .68.25 1.3 1.3 0 0 0 1.13-.37 1 1 0 0 0 .11-1.26m-2.86-2.01a.8.8 0 0 0-.4-.09.61.61 0 0 0-.34 1.06.61.61 0 0 0 1-.46.47.47 0 0 0-.26-.51m-24.16-1.04a1 1 0 0 0-.9-.32.74.74 0 0 0-.54.33.66.66 0 0 0-.08.62 1.18 1.18 0 0 0 .7.65 1.09 1.09 0 0 0 .93-.11.67.67 0 0 0-.11-1.17m-3.02 19.87a1 1 0 0 0-.38.29.8.8 0 0 0-.3.48 5.3 5.3 0 0 0-.1 1.37 1.42 1.42 0 0 0 .45 1.19 1 1 0 0 0 1.37-.26 2.4 2.4 0 0 0 .37-1.26c.06-.79-.31-2.3-1.41-1.81m.29-2.68a.57.57 0 0 0-.78-.13.9.9 0 0 0-.25.29.54.54 0 0 0 0 .55.87.87 0 0 0 .24.5.52.52 0 0 0 .73-.07.89.89 0 0 0 .06-1.14m6.05-16.47a3.3 3.3 0 0 0-1.82 0 1 1 0 0 0-.48 1.32c.48 1 1.88 1.07 2.8.61a1.2 1.2 0 0 0 .81-1.05c.01-.72-.79-.78-1.31-.88m-1.32-47.42c-.82-.13-1.66.54-1.42 1.35a5.3 5.3 0 0 0 .28 1.18c.19.59.38 1.17.56 1.76a3.4 3.4 0 0 0 .52 1.25 1.14 1.14 0 0 0 1.57.1 2.58 2.58 0 0 0 .77-2.06c0-1.16-.79-3.56-2.28-3.58m-2.16-1.69a1.09 1.09 0 0 0-1.44-.39 1.2 1.2 0 0 0-.16.16.86.86 0 0 0-.24.9 2.4 2.4 0 0 0 .31.57 2.1 2.1 0 0 0 .43.56.88.88 0 0 0 1.39-.61 1.5 1.5 0 0 0-.29-1.19m2.4-.89a.62.62 0 0 0-.73.57.6.6 0 0 0 .05.27.62.62 0 0 0 .15.45.7.7 0 0 0 .9.08.77.77 0 0 0-.37-1.37" style="fill:#8bd8aa"/><path d="M287.73 312.76a1.36 1.36 0 0 0-1.93.13 3.33 3.33 0 0 0-.64 3.18 2.12 2.12 0 0 0 .52 1.4 1.14 1.14 0 0 0 1.65-.17 4.7 4.7 0 0 0 .67-2.3c.11-.71.28-1.7-.27-2.24m.13-5.16a1 1 0 0 0-1.22 0 1.19 1.19 0 0 0-.43 1.11v.14a1.29 1.29 0 0 0 .1 1.08 1 1 0 0 0 1.83-.23 2 2 0 0 0-.28-2.1m1.63 2.9a.92.92 0 0 0-.55.49.7.7 0 0 0 0 .58 1.3 1.3 0 0 0 0 .4.67.67 0 0 0 .53.59.85.85 0 0 0 1-.61 1.56 1.56 0 0 0 0-1 .75.75 0 0 0-.98-.45m-.18-7.39a1.5 1.5 0 0 0-.35.7.9.9 0 0 0 0 .33 1.3 1.3 0 0 0 .05.58.64.64 0 0 0 1 .31 1.47 1.47 0 0 0 .48-1.71.69.69 0 0 0-1.18-.21m5.81-16.26a3.48 3.48 0 0 0-2.06 1.78 4 4 0 0 0-.32.69 3.4 3.4 0 0 0-.3.57 1.91 1.91 0 0 0 .7 2.47c1 .47 1.77-.5 2.29-1.22a5.8 5.8 0 0 0 1.21-2.63c.12-.97-.43-1.87-1.52-1.66m7.04-8.21a8.13 8.13 0 0 0-3.16 2.66c-.13.18-.26.38-.39.58v.05c-.56.77-1.43 2-.9 3a1.56 1.56 0 0 0 2.28.34 17.8 17.8 0 0 0 3.5-3.16c.65-.75 1.41-1.88 1-2.9s-1.49-.95-2.33-.57m-1.75 8.36a2 2 0 0 0-1.75 1.17 1.37 1.37 0 0 0-.36 1.05 1.19 1.19 0 0 0 1.2 1 1.6 1.6 0 0 0 1.31-.73c.3-.4.74-.9.7-1.42a1.13 1.13 0 0 0-1.1-1.07m-4.61 6.8a1.3 1.3 0 0 0-.68.13 1 1 0 0 0-.34 1.56.84.84 0 0 0 1.05.06 1.58 1.58 0 0 0 .5-1 .66.66 0 0 0-.53-.75m54.41 58.57a.86.86 0 0 0-1 .67.89.89 0 0 0 .57 1l.24.15a1.32 1.32 0 0 0 1 .16.87.87 0 0 0 .63-.88c-.08-.75-.83-1.04-1.44-1.1m4.62-.73c-.75-.39-2.18-.56-2.42.51a.4.4 0 0 0 0 .15.6.6 0 0 0 .06.32 1.43 1.43 0 0 0 .67.8 1.55 1.55 0 0 0 .81.24 1.7 1.7 0 0 0 .53.1 1 1 0 0 0 1.06-.88 1.24 1.24 0 0 0-.71-1.24m.11 3.29a.75.75 0 0 0-1.27-.22.6.6 0 0 0 .07.84 2 2 0 0 0 .33.19.59.59 0 0 0 .71-.17.58.58 0 0 0 .16-.64m2.57-.34a.49.49 0 0 0-.44-.2.45.45 0 0 0-.45.27.51.51 0 0 0 .62.69.5.5 0 0 0 .27-.76m37.72-67.54c-.54-1.23-1.49-3.19-3-3.48a.77.77 0 0 0-.74.37c-.74.88.18 2.43.54 3.18.49 1 1.08 2.82 2.51 2.63s1.08-1.82.69-2.7m-4.14-6.3a1.43 1.43 0 0 0-.76-.84.85.85 0 0 0-1.05.41 1.75 1.75 0 0 0 .7 2 .71.71 0 0 0 1.06-.17.6.6 0 0 0 .07-.14 1 1 0 0 0 .08-.15 1.48 1.48 0 0 0-.1-1.11m4.8 9.97c-.7.08-.9.65-.85 1.28a4.07 4.07 0 0 0 .8 2.1 1.26 1.26 0 0 0 1.42.59 1.21 1.21 0 0 0 .65-1.37c-.14-.95-.79-2.73-2.02-2.6m-2.36-.24a.77.77 0 0 0-.68 0 .3.3 0 0 0-.24.15c-.84.56 0 2.21.92 2.19 1.29.01.88-1.98 0-2.34m9.29 28.21a1.81 1.81 0 0 0-.62 1.45v.76a1.28 1.28 0 0 0 .51 1.38 1.2 1.2 0 0 0 1.41-.2 2.1 2.1 0 0 0 .5-1.53c-.04-.85-.62-2.61-1.8-1.86m-.2 5.1a1.19 1.19 0 0 0-.74 1.1c0 .12 0 .25-.05.38a1.2 1.2 0 0 0 .09.93.77.77 0 0 0 .52.43 1 1 0 0 0 .72 0 1.23 1.23 0 0 0 .68-1.05 2.7 2.7 0 0 0 0-1.13 1 1 0 0 0-1.22-.66m-2.28-1.79a2.12 2.12 0 0 0-.15 1.29.75.75 0 0 0 .62.71c1 .13 1.06-1.28.84-1.94a.72.72 0 0 0-1.31-.06m3.66-6.38a.68.68 0 0 0-.43.74 1 1 0 0 0-.07.29.72.72 0 0 0 .57.82.64.64 0 0 0 .61-.22 1.31 1.31 0 0 0 .17-1.23.66.66 0 0 0-.85-.4" style="fill:#acefc8"/><path d="M287 297.41c-7.56 17.72 1.54 48.33 9.85 58.84 9.75 12.33 29.78 23.21 47.16 23a63.24 63.24 0 0 0 44.4-19.67c10.36-11.2 16.85-31 16.78-40.53s-6.77-29.87-13.4-38.49c-7.37-9.56-24-19.93-39.93-22.52-12.91-2.1-37.76 7.79-45 14.1-6.12 5.32-15.73 15.67-19.86 25.27" style="fill:#37474f"/><path d="M293.35 293c-6.75 15.82 1.37 43.16 8.79 52.54 8.71 11 26.59 20.73 42.12 20.55a56.5 56.5 0 0 0 39.65-17.56c9.24-10 15-27.65 15-36.19s-6-26.67-12-34.36c-6.58-8.55-21.42-17.81-35.65-20.12-11.53-1.87-33.72 7-40.22 12.59-5.46 4.75-14.04 13.99-17.69 22.55" style="fill:#455a64"/><g style="opacity:.1"><path d="M331.42 373.25a3.93 3.93 0 0 0-1.79-1.45 2.67 2.67 0 0 0-2.17-.2 1.34 1.34 0 0 0-.56 1.9 3.28 3.28 0 0 0 1.83 1.33 1.3 1.3 0 0 0 .3.09 2.78 2.78 0 0 0 1.77.13 1.24 1.24 0 0 0 .62-1.8m1.26-3.25a2.2 2.2 0 0 0-1-.57.91.91 0 0 0-1.06.69 1.06 1.06 0 0 0 .39 1 1.8 1.8 0 0 0 .6.28 1.7 1.7 0 0 0 .34.14.89.89 0 0 0 1.15-.36c.26-.41-.1-.84-.42-1.18m4.18 4a2.21 2.21 0 0 0-2.24-1.1 1 1 0 0 0-.94 1.11 1.2 1.2 0 0 0 .76.95 2.2 2.2 0 0 0 .4.22 2.09 2.09 0 0 0 1.85-.17.75.75 0 0 0 .17-1.01m-44.97-35.16a1.3 1.3 0 0 0-.29.52 3.15 3.15 0 0 0-.07 2.51 12 12 0 0 0 2.11 4.79 1.44 1.44 0 0 0 2.19.17c.87-.93.2-2.4-.14-3.39s-1.94-6.62-3.8-4.6m8.19 3.96a1.41 1.41 0 0 0-1.83-.22c-.6.5-.36 1.3-.13 1.93a5 5 0 0 0 .23.51l.08.17c.3.6.78 1.4 1.56 1.21 1.48-.4.86-2.86.09-3.6m-.38 6.5a2 2 0 0 0-.67-.85.93.93 0 0 0-1.4.3 1.77 1.77 0 0 0 .53 1.85 1.06 1.06 0 0 0 .67.54.89.89 0 0 0 1-.73 1.9 1.9 0 0 0-.13-1.11m-3.7-8.42a1.4 1.4 0 0 0 .41.63.65.65 0 0 0 1-.12 1.23 1.23 0 0 0-.24-1.32.78.78 0 0 0-.44-.42.62.62 0 0 0-.76.44 1.4 1.4 0 0 0 .03.79M397.76 338a1 1 0 0 0-.68.45 7.2 7.2 0 0 0-1.24 1.88 6.1 6.1 0 0 0-1.11 2.63.92.92 0 0 0 1.11 1c.88-.14 1.44-1.22 1.87-1.87a5.54 5.54 0 0 0 1-2.65c.02-.62-.12-1.58-.95-1.44m-3.58 7.42a1.18 1.18 0 0 0-.87.71c-.1.2-.22.42-.31.65a1 1 0 0 0-.09 1.16c.31.44.85.31 1.25.09a2.1 2.1 0 0 0 .73-.77 1.75 1.75 0 0 0 .24-1 .89.89 0 0 0-.95-.84m-1.12-3.56c-.69-.33-1.24.48-1.55 1.34-.16.44-.76 1.17-.55 1.62a1 1 0 0 0 1.13.52 2 2 0 0 0 1.11-1c.42-.66.8-2.02-.14-2.48m1.12-3.86a1.5 1.5 0 0 0-.27.64.14.14 0 0 0 0 .06.6.6 0 0 0 .29.73 1 1 0 0 0 .86-.06 1.38 1.38 0 0 0 .51-1.42c-.27-.64-1.08-.37-1.39.05m-2 11.32a.87.87 0 0 0-.7.58.72.72 0 0 0-.05.71c.3.55 1.05.3 1.33-.11a.72.72 0 0 0-.58-1.18m4.75-17a.84.84 0 0 0-.42.34c-.37.34-.39 1.25-.45 1.66a1.22 1.22 0 0 0 .27 1.16.91.91 0 0 0 1.23-.06 2.72 2.72 0 0 0 .47-2.48.9.9 0 0 0-1.1-.62m-73.42 37.61a2.65 2.65 0 0 0-1.17-.38.83.83 0 0 0-.8.74.7.7 0 0 0-.07.33 1.31 1.31 0 0 0 .72.95c.66.42 1.92.42 2-.6a1.12 1.12 0 0 0-.68-1.04m29.42-108.13c-.71 0-1.81.68-1.25 1.51a1.06 1.06 0 0 0 .94.41h.65c.73.17 1.64.2 1.79-.62.19-.98-1.42-1.33-2.13-1.3m2.56-1.32a.75.75 0 0 0-.18 1.34 2.6 2.6 0 0 0 .67.22 4 4 0 0 0 .62.16.59.59 0 0 0 .72-.66c.2-.86-1.17-1.3-1.83-1.06m2.18 2.32h-.06a.34.34 0 0 0-.25.52s0 0 0 .06a.47.47 0 1 0 .28-.6Z" style="fill:#fff"/></g><path d="M284.72 326.54c.44 1.08 1.6 1.15 2.19 1.82s2 4.37 4.25 5 6.18-.13 6.84-.31 1.78-1.11 2.84-1.12 1.63 2.07 2.75 2.2.64-1.4 1.36-1.43 2.9 1.75 3.82 1.88 2-.18 2.71.16 1.75 1.65 3.69 1.75 4.92-2.36 6-2.37a12.5 12.5 0 0 0 2.69.11c1-.19 3.68-2.06 4.26-2.29s1.21.26 2.19-.22 2.18-1.91 3.05-1.47.48 1.74.05 2.64-.23 2-.88 2.65-2.26 2.61-2.38 3.43.75 2.54.54 3.68.49 4.57-.54 6.12 2 4.63 3.2 4.81 4.67-1.67 6.41-1.62 3.1 2.06 5.17 2.31a70 70 0 0 1 10.14 3.07c1.29.56 5.52 2.25 5.86 3.18s-.11 3.73.78 4.53 6.56 2.92 7.7 3.53 6.19.92 7.09.89a2 2 0 0 0 1.36-.76c0-.14-2.66-.88-3.23-1.17s-1.26-1.33-1.49-1.51a13 13 0 0 1-2.23-.94 13.9 13.9 0 0 1-2.27-3.52c-.21-.74.83-5.55 1-6.39s-1.27-3.15-1.25-3.93 1.1-2.61 1.08-3.5-1.55-2.18-1.72-2.61a63 63 0 0 1-.08-7.92c.16-.63 1-1.84.91-2.49s-1.24-1.57-1.48-1.78 0-1.83-.33-2.18a23 23 0 0 0-2.88-1.63c-.64-.37-1.3-1-1.76-1s-2.83 1-3.22 1.05a26 26 0 0 0-2.81.27c-.43.14-1.3.82-1.64.83s-3.65-.59-4.44-.65-1.73.28-2 .15-3.05-2.67-3.65-2.87a20.7 20.7 0 0 0-4.61-.57c-1.07.09-7.43.91-8 .81a32 32 0 0 1-4.37-1.94c-.4-.29-.9-4.39-1.43-5s-7.08-5.29-7.44-5.68-1.08-4.41-1.11-5a7.4 7.4 0 0 1 1.71-2.85 38 38 0 0 0 4-2.62 33 33 0 0 0 2.94-4 5.2 5.2 0 0 0-.62-2.42c-.17-.22 1.75-4.95 2.35-5.8s4.17-5.45 4.52-6.65-1.17-3.93-1.51-4.37a10 10 0 0 1-1-1.27c-.12-.32-1-3-1.84-3s-3.49 2.85-3.64 3.2A10.5 10.5 0 0 1 323 282c-.31.22-2.17 1.13-2.64 1.52s-2.63 2.12-3.14 2.07a3.1 3.1 0 0 1-1.67-1.29 10 10 0 0 1-.51-2.07 11 11 0 0 1 .6-1.45c.1-.37-.68-1.53-.63-2.23s3.94-2.18 4.82-2.75 2.05-3.7 2.68-4.38 2.89-.52 3.28-.57 1.94-.76 2-1.18-1.68-1.82-2.24-1.84-4.82-.11-5.45 0-6 2-6.32 2.24a12 12 0 0 1-1.94 1.31c-.42.09-1.46-.16-2.05-.09a24 24 0 0 0-4.1.77c-3.11 2-12.63 11.6-16.82 19.66a43 43 0 0 0-5.33 21.16c.03 7.35.72 12.55 1.18 13.66m83.92-62.39a6.2 6.2 0 0 1 2.27-.9c.48 0 14 7.84 18.66 13.16s9.09 13 12.82 24.59 4 17.21 3.73 20.34-3.12 14.66-4.35 16.88c-.41.73-1.6-.64-1.82-1.09s0-2.41-.25-3.34-2.76-3.26-3.19-4.16 1-3.05.9-3.76-1.45-2.95-1.56-3.77.06-4 0-4.86-2.58-3.13-3.4-3-1.06 1.69-1.61 2.09a2.33 2.33 0 0 1-1.44.57c-.24-.08-1.15-.84-1.68-.67s-1.26 1.4-1.54 1.58-4.93 1.65-5.5 1.81-4.95 2.38-5.4 2.37a33 33 0 0 1-4.1-1.87c-.29-.15-5-6-5.54-7.47s3.1-9.42 3.35-10.25-.24-4.67-.1-5.46 1.51-1.58 1.77-2 .18-1.42.79-2.15 2.82-2.54 3.48-3.46a10.9 10.9 0 0 0 1.13-3.11c.15-.51 1.14-2 1.27-2.46s.18-1.63.68-2a8.76 8.76 0 0 1 4.23-.6c.92.25 2.43 1.79 3 1.8a3.6 3.6 0 0 0 2.1-.91 14.2 14.2 0 0 0 .52-3.89c-.07-.39-1-1.79-1.45-1.73s-3.33 1.49-4.14 1.47-4.32-.66-5.14-.49a30 30 0 0 0-4.78 2.3 35.7 35.7 0 0 0-2.88 5.59c-.16.68-.06 4.76-.73 5.64s-4.34 1.64-5.6 1.55-2.92-4.69-2.94-5.36 2.86-5.55 3.19-6.11 2.74-2.89 3.14-3.44 1.14-2.42 1.56-3 1.53-1.67 1.54-2-.28-1.07-.57-1.15-2.15 0-2.5-.64.77-3.76.92-4.31a6.3 6.3 0 0 1 1.16-2.33" style="fill:#37474f"/><path d="M367.31 294.07a1.8 1.8 0 0 0-2.86.43 2.13 2.13 0 0 0-.47 1.16 1.15 1.15 0 0 0 1.38 1.33 2.3 2.3 0 0 0 .87-.52c.26-.21.54-.37.78-.6a1.37 1.37 0 0 0 .3-1.8m-2.37 3.83a.86.86 0 0 0-1 .68.4.4 0 0 0 0 .16.81.81 0 0 0 .14.69.9.9 0 0 0 1.52-.19 1 1 0 0 0-.66-1.34m-12.25 27.21a6.9 6.9 0 0 0-2.36-.47 1.25 1.25 0 0 0-1.12 1.29 2 2 0 0 0 .05.28.85.85 0 0 0 .25.66 3.5 3.5 0 0 0 1.74.94 3.25 3.25 0 0 0 2 0 1.45 1.45 0 0 0 .91-1.6c-.16-.72-.83-.94-1.47-1.1m5.69.8a1.16 1.16 0 0 0-1.11-.41 1.55 1.55 0 0 0-1.1.37.92.92 0 0 0 .29 1.42 1.35 1.35 0 0 0 .68.25 1.3 1.3 0 0 0 1.13-.37 1 1 0 0 0 .11-1.26m-2.86-2.01a.8.8 0 0 0-.4-.09.61.61 0 0 0-.34 1.06.61.61 0 0 0 1-.46.47.47 0 0 0-.26-.51m-24.16-1.04a1 1 0 0 0-.9-.32.74.74 0 0 0-.54.33.66.66 0 0 0-.08.62 1.18 1.18 0 0 0 .7.65 1.09 1.09 0 0 0 .93-.11.67.67 0 0 0-.11-1.17m-3.02 19.87a1 1 0 0 0-.38.29.8.8 0 0 0-.3.48 5.3 5.3 0 0 0-.1 1.37 1.42 1.42 0 0 0 .45 1.19 1 1 0 0 0 1.37-.26 2.4 2.4 0 0 0 .37-1.26c.06-.79-.31-2.3-1.41-1.81m.29-2.68a.57.57 0 0 0-.78-.13.9.9 0 0 0-.25.29.54.54 0 0 0 0 .55.87.87 0 0 0 .24.5.52.52 0 0 0 .73-.07.89.89 0 0 0 .06-1.14m6.05-16.47a3.3 3.3 0 0 0-1.82 0 1 1 0 0 0-.48 1.32c.48 1 1.88 1.07 2.8.61a1.2 1.2 0 0 0 .81-1.05c.01-.72-.79-.78-1.31-.88m-1.32-47.42c-.82-.13-1.66.54-1.42 1.35a5.3 5.3 0 0 0 .28 1.18c.19.59.38 1.17.56 1.76a3.4 3.4 0 0 0 .52 1.25 1.14 1.14 0 0 0 1.57.1 2.58 2.58 0 0 0 .77-2.06c0-1.16-.79-3.56-2.28-3.58m-2.16-1.69a1.09 1.09 0 0 0-1.44-.39 1.2 1.2 0 0 0-.16.16.86.86 0 0 0-.24.9 2.4 2.4 0 0 0 .31.57 2.1 2.1 0 0 0 .43.56.88.88 0 0 0 1.39-.61 1.5 1.5 0 0 0-.29-1.19m2.4-.89a.62.62 0 0 0-.73.57.6.6 0 0 0 .05.27.62.62 0 0 0 .15.45.7.7 0 0 0 .9.08.77.77 0 0 0-.37-1.37" style="fill:#37474f"/><path d="M287.73 312.76a1.36 1.36 0 0 0-1.93.13 3.33 3.33 0 0 0-.64 3.18 2.12 2.12 0 0 0 .52 1.4 1.14 1.14 0 0 0 1.65-.17 4.7 4.7 0 0 0 .67-2.3c.11-.71.28-1.7-.27-2.24m.13-5.16a1 1 0 0 0-1.22 0 1.19 1.19 0 0 0-.43 1.11v.14a1.29 1.29 0 0 0 .1 1.08 1 1 0 0 0 1.83-.23 2 2 0 0 0-.28-2.1m1.63 2.9a.92.92 0 0 0-.55.49.7.7 0 0 0 0 .58 1.3 1.3 0 0 0 0 .4.67.67 0 0 0 .53.59.85.85 0 0 0 1-.61 1.56 1.56 0 0 0 0-1 .75.75 0 0 0-.98-.45m-.18-7.39a1.5 1.5 0 0 0-.35.7.9.9 0 0 0 0 .33 1.3 1.3 0 0 0 .05.58.64.64 0 0 0 1 .31 1.47 1.47 0 0 0 .48-1.71.69.69 0 0 0-1.18-.21m7.56-18.48a2.18 2.18 0 0 0-1.29 1.11 2 2 0 0 0-.2.44 2.4 2.4 0 0 0-.2.35 1.2 1.2 0 0 0 .45 1.55c.63.3 1.1-.31 1.43-.76a3.7 3.7 0 0 0 .76-1.65c.07-.61-.27-1.17-.95-1.04m4.41-5.15a5 5 0 0 0-2 1.67l-.25.36c-.36.49-.9 1.28-.57 1.9a1 1 0 0 0 1.43.22 11.5 11.5 0 0 0 2.2-2c.41-.47.88-1.18.64-1.82s-.92-.57-1.45-.33m-1.1 5.27a1.24 1.24 0 0 0-1.09.73.85.85 0 0 0-.23.66.74.74 0 0 0 .75.6 1.06 1.06 0 0 0 .83-.46c.18-.25.46-.56.43-.89a.7.7 0 0 0-.69-.64m-4.08 5.38a1.17 1.17 0 0 0-.67.13 1 1 0 0 0-.35 1.55.86.86 0 0 0 1.06.07 1.52 1.52 0 0 0 .49-1 .66.66 0 0 0-.53-.75m54.11 62.24a.86.86 0 0 0-1 .67.89.89 0 0 0 .57 1l.24.15a1.32 1.32 0 0 0 1 .16.87.87 0 0 0 .63-.88c-.08-.75-.83-1.04-1.44-1.1m4.62-.73c-.75-.39-2.18-.56-2.42.51a.4.4 0 0 0 0 .15.6.6 0 0 0 .06.32 1.43 1.43 0 0 0 .67.8 1.55 1.55 0 0 0 .81.24 1.7 1.7 0 0 0 .53.1 1 1 0 0 0 1.06-.88 1.24 1.24 0 0 0-.71-1.24m.11 3.29a.75.75 0 0 0-1.27-.22.6.6 0 0 0 .07.84 2 2 0 0 0 .33.19.59.59 0 0 0 .71-.17.58.58 0 0 0 .16-.64m2.57-.34a.49.49 0 0 0-.44-.2.45.45 0 0 0-.45.27.51.51 0 0 0 .62.69.5.5 0 0 0 .27-.76m37.72-67.54c-.54-1.23-1.49-3.19-3-3.48a.77.77 0 0 0-.74.37c-.74.88.18 2.43.54 3.18.49 1 1.08 2.82 2.51 2.63s1.08-1.82.69-2.7m-4.14-6.3a1.43 1.43 0 0 0-.76-.84.85.85 0 0 0-1.05.41 1.75 1.75 0 0 0 .7 2 .71.71 0 0 0 1.06-.17.6.6 0 0 0 .07-.14 1 1 0 0 0 .08-.15 1.48 1.48 0 0 0-.1-1.11m4.8 9.97c-.7.08-.9.65-.85 1.28a4.07 4.07 0 0 0 .8 2.1 1.26 1.26 0 0 0 1.42.59 1.21 1.21 0 0 0 .65-1.37c-.14-.95-.79-2.73-2.02-2.6m-2.36-.24a.77.77 0 0 0-.68 0 .3.3 0 0 0-.24.15c-.84.56 0 2.21.92 2.19 1.29.01.88-1.98 0-2.34m9.29 28.21a1.81 1.81 0 0 0-.62 1.45v.76a1.28 1.28 0 0 0 .51 1.38 1.2 1.2 0 0 0 1.41-.2 2.1 2.1 0 0 0 .5-1.53c-.04-.85-.62-2.61-1.8-1.86m-.2 5.1a1.19 1.19 0 0 0-.74 1.1c0 .12 0 .25-.05.38a1.2 1.2 0 0 0 .09.93.77.77 0 0 0 .52.43 1 1 0 0 0 .72 0 1.23 1.23 0 0 0 .68-1.05 2.7 2.7 0 0 0 0-1.13 1 1 0 0 0-1.22-.66m-2.28-1.79a2.12 2.12 0 0 0-.15 1.29.75.75 0 0 0 .62.71c1 .13 1.06-1.28.84-1.94a.72.72 0 0 0-1.31-.06m3.66-6.38a.68.68 0 0 0-.43.74 1 1 0 0 0-.07.29.72.72 0 0 0 .57.82.64.64 0 0 0 .61-.22 1.31 1.31 0 0 0 .17-1.23.66.66 0 0 0-.85-.4" style="fill:#455a64"/><g style="opacity:.2"><path d="M359.06 290.4c-10.73 2.18-27.15-14-21.27-22 4.82-6.47 14.92-5.77 20.47-3.38s11.35 8.42 10.35 14.68c-.85 5.3-5.61 9.9-9.55 10.7m-27.51-23.55c2.57 2.27.17 8.39-3.28 9.3s-6.66-3.4-5.87-6 6.83-5.35 9.15-3.3" style="fill:#fff"/></g><path d="M283 352.61s12.59-.59 19.13-3.93S313.46 336 313.46 336a25.1 25.1 0 0 1 2.54-10.28c2.61-5.56 8.4-8.62 11.21-7.26 3.95 1.91.48 9.53 2.83 16.27 0 0 14.77 43.38-33 54.74-.04 0-16.87-15.33-14.04-36.86" style="fill:#dd822e"/><g style="opacity:.2"><path d="M324.18 329c2.36-.88 4-6.39 2.66-8.26s-5 .37-5.77 2.63.98 6.46 3.11 5.63" style="fill:#fff"/></g><path d="M283 352.61q4.59-.45 9.12-1.31a40.5 40.5 0 0 0 8.75-2.53 14.6 14.6 0 0 0 1.94-1.07l.9-.66.86-.72a31 31 0 0 0 3.12-3.27 53 53 0 0 0 5.17-7.47l-.09.38a25.8 25.8 0 0 1 1-7.51 18.4 18.4 0 0 1 1.49-3.56 15.6 15.6 0 0 1 2.34-3.09 20 20 0 0 1 2.87-2.56 11.7 11.7 0 0 1 3.53-1.82 6.3 6.3 0 0 1 2.15-.26 4 4 0 0 1 2.2.92 4.4 4.4 0 0 1 1.23 1.94 9.3 9.3 0 0 1 .42 2c.27 2.6 0 5.08.06 7.44a11 11 0 0 0 .15 1.68c.08.49.29 1.1.44 1.7.32 1.2.61 2.41.86 3.63a55.5 55.5 0 0 1 1.1 14.89 43.4 43.4 0 0 1-1.09 7.42c-.26 1.22-.65 2.42-1 3.62s-.82 2.37-1.37 3.5a39 39 0 0 1-3.74 6.5 40 40 0 0 1-4.94 5.61 47.1 47.1 0 0 1-12.27 8.31 73 73 0 0 1-13.91 4.88 80.6 80.6 0 0 0 13.56-5.56 49.8 49.8 0 0 0 11.72-8.54 36.1 36.1 0 0 0 8-11.88c.52-1.08.86-2.24 1.28-3.36s.7-2.3.93-3.48a40 40 0 0 0 1-7.13 53.4 53.4 0 0 0-1.2-14.37c-.24-1.18-.54-2.35-.86-3.52-.14-.59-.33-1.15-.46-1.87a12.6 12.6 0 0 1-.16-2c0-2.53.24-5 0-7.27a4.32 4.32 0 0 0-1-2.74 2 2 0 0 0-1.1-.48 4.3 4.3 0 0 0-1.48.18 10 10 0 0 0-3 1.52 19 19 0 0 0-2.64 2.31 14.4 14.4 0 0 0-2.12 2.73 18 18 0 0 0-1.37 3.21 24.8 24.8 0 0 0-1.17 7v.23l-.09.15a55 55 0 0 1-5.53 7.53 33.5 33.5 0 0 1-3.34 3.29l-.93.74-1 .68a13.3 13.3 0 0 1-2.14 1.06 28 28 0 0 1-4.48 1.35c-1.51.35-3 .61-4.56.83a81 81 0 0 1-9.15.8" style="fill:#263238"/><path d="M285.1 350.77a9.1 9.1 0 0 1 3.24-.1 10.5 10.5 0 0 1 1.57.34 5.7 5.7 0 0 1 1.52.66 11 11 0 0 1-3.23 0 10 10 0 0 1-3.1-.9m12.58 41.47a9 9 0 0 1 2.17-2.41 11 11 0 0 1 1.33-.91 5.6 5.6 0 0 1 1.52-.64 11 11 0 0 1-2.23 2.33 10 10 0 0 1-2.79 1.63" style="fill:#263238"/><path d="M302.31 414.39c-1-9.23 9.08-36.9 23.43-44.4s45.73-10.07 45.73-10.07S373 346.55 378 347.6c3.06.65 15.57 41.21 13.71 43.48s-30.92 16.35-30.92 16.35-9.45 20.66-25.3 26.6-31.63-5.35-33.18-19.64" style="fill:#dd822e"/><path d="M371.47 359.92c-7.39 1-14.74 2.23-22 3.65-3.63.76-7.26 1.52-10.83 2.5a63 63 0 0 0-10.38 3.6 20 20 0 0 0-4.52 2.8 49 49 0 0 0-4 3.74 60.6 60.6 0 0 0-6.83 8.62 73 73 0 0 0-5.37 9.69 82 82 0 0 0-4 10.39 65.8 65.8 0 0 1 8.01-20.91 56.3 56.3 0 0 1 6.77-9.09c.63-.71 1.32-1.37 2-2s1.41-1.28 2.13-1.91a21 21 0 0 1 4.92-3.1 62 62 0 0 1 10.76-3.63q5.47-1.33 11-2.2a184 184 0 0 1 22.34-2.15" style="fill:#263238"/><path d="M306.86 394.79a19.5 19.5 0 0 1-1.82 2.67 23 23 0 0 1-2.11 2.43 5.94 5.94 0 0 1 1.33-3 6.36 6.36 0 0 1 2.6-2.1" style="fill:#263238"/><path d="M379.74 268.59s-4-10.54-9.37-12.49-12.64.07-15.29 1.72-5.81 8.67-2.22 9.86c5.33 1.76 16.18-4.14 16.18-4.14s2.78.38 10.7 5.05" style="fill:#dd822e"/></g></svg>