<svg fill="#c2410c" width="800" height="800" viewBox="144 144 512 512" xmlns="http://www.w3.org/2000/svg"><g><path d="m557.69 320.4-33.25 33.25c5.0391-1.0078 10.078-2.0156 15.113-2.0156 36.777.0 66.504 29.727 66.504 66.504-.003906 36.777-29.727 66.5-66.504 66.5h-146.11l-33.25 33.25h179.36c54.914.0 99.754-44.84 99.754-99.754.0-48.363-35.266-89.172-81.617-97.734z"/><path d="m584.39 224.17c-6.5508-6.5508-17.129-6.5508-23.68.0l-51.895 51.391c-20.152-20.656-49.879-32.242-81.617-27.207-23.176-21.664-53.402-33.754-85.145-33.754-64.992.0-117.89 49.879-123.43 113.36-35.266 16.121-58.441 51.387-58.441 90.688.0 54.914 44.84 99.754 99.754 99.754h6.0469l-38.793 38.793c-6.5508 6.5508-6.5508 17.129.0 23.68 3.0234 3.0234 7.5586 5.0391 11.586 5.0391 4.0312.0 8.5664-1.5117 11.586-5.0391l333.02-333.02c7.5586-6.5508 7.5586-17.633 1.0117-23.68zM260.44 484.64c-36.777.0-66.504-29.727-66.504-66.504.0-29.223 18.641-54.41 46.352-62.977 7.0547-2.0156 11.586-8.5664 11.586-16.121v-1.0078c0-49.879 40.809-90.184 90.688-90.184 25.191.0 49.879 11.082 67.008 29.727 4.0312 4.5352 10.578 6.5508 16.625 5.0391 5.0391-1.5117 10.578-2.0156 15.113-2.0156 17.129.0 32.746 7.0547 43.832 18.641l-185.4 185.4z"/></g></svg>
