<svg xmlns="http://www.w3.org/2000/svg" fill="#c2410c" viewBox="144 144 512 512"><path d="m557.69 320.4-33.25 33.25c5.04-1.008 10.078-2.016 15.113-2.016 36.777 0 66.504 29.727 66.504 66.504-.004 36.777-29.727 66.5-66.504 66.5h-146.11l-33.25 33.25h179.36c54.914 0 99.754-44.84 99.754-99.754 0-48.363-35.266-89.172-81.617-97.734m26.7-96.23c-6.55-6.55-17.129-6.55-23.68 0l-51.895 51.391c-20.152-20.656-49.879-32.242-81.617-27.207-23.176-21.664-53.402-33.754-85.145-33.754-64.992 0-117.89 49.879-123.43 113.36-35.266 16.121-58.441 51.387-58.441 90.688 0 54.914 44.84 99.754 99.754 99.754h6.047l-38.793 38.793c-6.55 6.55-6.55 17.129 0 23.68 3.023 3.023 7.559 5.04 11.586 5.04 4.031 0 8.566-1.513 11.586-5.04l333.02-333.02c7.559-6.55 7.559-17.633 1.012-23.68zM260.44 484.64c-36.777 0-66.504-29.727-66.504-66.504 0-29.223 18.641-54.41 46.352-62.977 7.055-2.016 11.586-8.566 11.586-16.121v-1.008c0-49.879 40.809-90.184 90.688-90.184 25.191 0 49.879 11.082 67.008 29.727 4.031 4.535 10.578 6.551 16.625 5.04 5.04-1.512 10.578-2.016 15.113-2.016 17.129 0 32.746 7.054 43.832 18.64l-185.4 185.4z"/></svg>